HIERARCHY
ROOT HipCenter
{
    OFFSET 0.0 0.0 -0.0
    CHANNELS 6 Xposition Yposition Zposition Zrotation Xrotation Yrotation
    JOINT Spine
    {
        OFFSET 0.0 0.11782637238502502 0.0
        CHANNELS 3 Zrotation Xrotation Yrotation
        JOINT ShoulderCenter
        {
            OFFSET 0.0 0.3156246542930603 0.0
            CHANNELS 3 Zrotation Xrotation Yrotation
            JOINT LeftShoulder
            {
                OFFSET 0.16873063147068024 0.0 0.0
                CHANNELS 3 Zrotation Xrotation Yrotation
                JOINT LeftElbow
                {
                    OFFSET 0.24584174156188965 0.0 0.0
                    CHANNELS 3 Zrotation Xrotation Yrotation
                    JOINT LeftWrist
                    {
                        OFFSET 0.26728713512420654 0.0 0.0
                        CHANNELS 3 Zrotation Xrotation Yrotation
                        JOINT LeftHand
                        {
                            OFFSET 0.03277141600847244 0.0 0.0
                            CHANNELS 3 Zrotation Xrotation Yrotation
                            End Site
                            {
                                OFFSET 0.013108565472066402 0.0 0.0
                            }
                        }
                    }
                }
            }
            JOINT RightShoulder
            {
                OFFSET -0.16873063147068024 0.0 0.0
                CHANNELS 3 Zrotation Xrotation Yrotation
                JOINT RightElbow
                {
                    OFFSET -0.24584174156188965 0.0 0.0
                    CHANNELS 3 Zrotation Xrotation Yrotation
                    JOINT RightWrist
                    {
                        OFFSET -0.26728713512420654 0.0 0.0
                        CHANNELS 3 Zrotation Xrotation Yrotation
                        JOINT RightHand
                        {
                            OFFSET -0.03277141600847244 0.0 0.0
                            CHANNELS 3 Zrotation Xrotation Yrotation
                            End Site
                            {
                                OFFSET -0.013108565472066402 0.0 0.0
                            }
                        }
                    }
                }
            }
            End Site
            {
                OFFSET 0.0 0.12624984979629517 0.0
            }
        }
    }
    JOINT LeftHip
    {
        OFFSET 0.12338260561227798 0.0 0.0
        CHANNELS 3 Zrotation Xrotation Yrotation
        JOINT LeftKnee
        {
            OFFSET 0.0 -0.36658501625061035 0.0
            CHANNELS 3 Zrotation Xrotation Yrotation
            JOINT LeftAnkle
            {
                OFFSET 0.0 -0.38127270340919495 0.0
                CHANNELS 3 Zrotation Xrotation Yrotation
                JOINT LeftFoot
                {
                    OFFSET 0.0 -0.11606023460626602 0.0
                    CHANNELS 3 Zrotation Xrotation Yrotation
                    End Site
                    {
                        OFFSET 0.0 0.0 0.04642409458756447
                    }
                }
            }
        }
    }
    JOINT RightHip
    {
        OFFSET -0.12338260561227798 0.0 0.0
        CHANNELS 3 Zrotation Xrotation Yrotation
        JOINT RightKnee
        {
            OFFSET 0.0 -0.36658501625061035 0.0
            CHANNELS 3 Zrotation Xrotation Yrotation
            JOINT RightAnkle
            {
                OFFSET 0.0 -0.38127270340919495 0.0
                CHANNELS 3 Zrotation Xrotation Yrotation
                JOINT RightFoot
                {
                    OFFSET 0.0 -0.11606023460626602 0.0
                    CHANNELS 3 Zrotation Xrotation Yrotation
                    End Site
                    {
                        OFFSET 0.0 0.0 0.04642409458756447
                    }
                }
            }
        }
    }
}
MOTION
Frames: 4
Frame Time: 0.03333333333333333
0.43700000643730164 0.5019999742507935 0.8740000128746033 -1.0809263084510736 25.68971449075676 3.7695346157879195 1.0672117780859756 7.897643435019336 0.0656134771653935 1.5636928780984473e-07 2.474532567123869e-06 0.5930968783895052 178.86885743338587 25.370935917388813 128.76336358721832 1.3729870739773323e-06 -1.1109137307651472e-06 25.37147307466599 179.99999870648796 -30.427847740969415 -118.55481198997165 1.5902773407317588e-15 -3.1805546814635176e-15 -5.565970692561156e-15 -177.52087251136783 27.0086568843063 -116.09023919200438 6.967198876752194e-07 7.532477386993255e-07 -25.022616087205318 5.466705047007655e-07 -39.67121361296163 -40.83317446047581 -5.963540027744094e-16 -4.138037154422024e-33 7.951386703658792e-16 -2.361045673817206 -58.655836456209094 23.23386214287718 30.827281191255903 48.34973025312532 -71.67348126729705 81.18222697018115 -53.15761788543621 127.2867994050491 0.0 0.0 -1.5902773407317584e-15 3.158201168964269 -57.697842801120316 -25.63776305745661 -27.262980527063956 47.14954943465772 69.7836302764366 -77.60145413054933 -47.47321977943538 -126.5413269581618 0.0 0.0 -4.770832022195275e-15
0.43799999356269836 0.48500001430511475 0.8519999980926514 -1.123304956461696 30.041668415815128 3.3848640105455035 1.0279047490886153 8.487993334231412 0.01814448693755804 -8.794558555032686e-08 -4.901288553455648e-07 0.6103347395595333 174.451872365305 22.759847291278255 122.09957351842948 -1.6495227344584946e-06 2.5353085038865095e-06 23.604861912842377 179.99999977274214 -30.903053634850004 -119.66493565136733 1.5902773407317584e-15 -2.2069531490250793e-32 -1.5902773407317584e-15 -175.73342098225478 27.4790006010021 -109.94131059846598 -1.8711999451360322e-07 1.2384637847040647e-07 -24.176624167906457 8.635084291060431e-07 -41.04796036729512 -42.02921605637085 4.969616689786744e-16 -4.969616689786745e-17 -9.939233379573488e-16 -2.6470163807980827 -67.69707810021731 29.981540552722805 42.41806655190894 47.23757173174015 -82.91747955691234 81.71197021515718 -55.684899987857186 129.50664432064247 -3.1805546814635168e-15 4.4139062980501586e-32 -1.5902773407317584e-15 3.2184721204171507 -66.92722397558173 -31.861322307331022 -37.70125989637724 47.50599786816777 78.52259747310146 -75.21647102946235 -50.03833109205553 -123.76785744558826 3.1805546814635168e-15 -4.4139062980501586e-32 -1.5902773407317584e-15
0.4390000104904175 0.46000000834465027 0.8330000042915344 -1.169141309561826 33.549433186279494 2.915653985866607 0.7737980851091739 8.731164473671454 0.014742957620466094 1.0696925186581476e-07 -2.7935530992502414e-08 1.0303313941700545 167.9189950218378 22.512152103609267 117.98268750686182 -2.8547130525880313e-06 4.463505772426945e-06 21.950153046220723 -179.99999875777942 -31.423260424565427 -118.29956529713996 -2.3854160110976376e-15 6.620859447075238e-32 -3.1805546814635168e-15 -176.24433884912654 30.879004920018104 -103.32882607942642 -2.5264383899772775e-07 2.9789702959218917e-07 -22.715030284433738 -4.712169988448821e-06 -34.662442872530214 -41.13228750660293 1.987846675914698e-16 0.0 0.0 -4.393802583135848 -76.23444089052015 33.58435816032027 53.57067953220229 46.24594572939789 -91.85422241734902 83.69922245825042 -56.888398400189224 132.42892720413352 -3.1805546814635168e-15 4.4139062980501586e-32 -1.5902773407317584e-15 5.545891225597589 -75.7708252742957 -34.83753029083077 -49.01228248887441 47.38520202426068 86.91709980302589 -78.11340339498359 -53.07808065390934 -126.58699997351049 0.0 0.0 0.0
0.4410000145435333 0.4259999990463257 0.8149999976158142 -1.8087332710476143 36.37070295435255 3.416602291232146 1.6214816444794955 8.428245662783256 -0.1356480293347052 2.029108953985182e-07 2.028730063251221e-06 0.9206287811444627 166.34080161303143 29.569202334752685 113.27316193858127 1.1484779267353185e-06 -5.436825863247945e-06 19.803034899669903 -179.9999964790665 -35.69403835949104 -119.35598377622277 0.0 0.0 1.9878466759146984e-15 -177.67340586475544 36.74178579693028 -98.44306447313086 1.2640970199475522e-06 7.009779335802822e-07 -20.95393374742922 7.884300691287995e-07 -32.903793160957484 -40.97151057231114 -3.9756933518293955e-16 1.5902773407317582e-15 5.517382872562698e-33 -18.519766572607207 -84.96942470463092 24.312241958093303 65.46865211863114 44.63313515208401 -100.27453296032392 87.58649193152488 -56.989181052988776 137.52750526362186 0.0 0.0 -1.5902773407317584e-15 11.630657710680566 -84.38935413517237 -33.25461463456544 -60.482729203731076 47.201828574809994 94.91755963840744 -81.42357205192585 -54.64390828949342 -129.71532352998892 0.0 0.0 0.0
